<mxfile host="drawio-plugin" modified="2023-02-09T02:07:49.648Z" agent="5.0 (Windows NT 6.2; Win64; x64) AppleWebKit/537.36 (KHTML, like Gecko) Chrome/98.0.4758.102 Safari/537.36" version="20.5.3" etag="1neaX0vYA1K1zJSnaR6o" type="embed"><diagram id="2ciP8g4ZbyeKmFrxj2Zz" name="Page-1"><mxGraphModel dx="2205" dy="1484" grid="1" gridSize="10" guides="1" tooltips="1" connect="1" arrows="1" fold="1" page="1" pageScale="1" pageWidth="1654" pageHeight="2336" background="#000000" math="0" shadow="0"><root><mxCell id="0"/><mxCell id="1" parent="0"/><mxCell id="93" style="edgeStyle=orthogonalEdgeStyle;rounded=0;orthogonalLoop=1;jettySize=auto;html=1;strokeColor=#FFFFFF;fontColor=#FFFFFF;endArrow=classic;endFill=1;startArrow=none;" edge="1" parent="1" source="94" target="92"><mxGeometry relative="1" as="geometry"/></mxCell><mxCell id="91" value="Everything" style="whiteSpace=wrap;html=1;aspect=fixed;labelBackgroundColor=none;strokeColor=#FFFFFF;fontColor=#FFFFFF;fillColor=none;" vertex="1" parent="1"><mxGeometry x="460" y="760" width="80" height="80" as="geometry"/></mxCell><mxCell id="4" style="edgeStyle=orthogonalEdgeStyle;rounded=0;orthogonalLoop=1;jettySize=auto;html=1;strokeColor=#FFFFFF;startArrow=none;" edge="1" parent="1" source="5" target="3"><mxGeometry relative="1" as="geometry"/></mxCell><mxCell id="2" value="&lt;font color=&quot;#ffffff&quot;&gt;MainApp&lt;/font&gt;" style="swimlane;whiteSpace=wrap;html=1;strokeColor=#FFFFFF;fillColor=#000000;" vertex="1" parent="1"><mxGeometry x="680" y="200" width="120" height="80" as="geometry"/></mxCell><mxCell id="10" style="edgeStyle=orthogonalEdgeStyle;rounded=0;orthogonalLoop=1;jettySize=auto;html=1;strokeColor=#FFFFFF;fontColor=#FFFFFF;startArrow=none;" edge="1" parent="1" source="11" target="9"><mxGeometry relative="1" as="geometry"/></mxCell><mxCell id="14" style="edgeStyle=orthogonalEdgeStyle;rounded=0;orthogonalLoop=1;jettySize=auto;html=1;entryX=0.5;entryY=0;entryDx=0;entryDy=0;strokeColor=#FFFFFF;fontColor=#FFFFFF;startArrow=none;" edge="1" parent="1" source="15" target="13"><mxGeometry relative="1" as="geometry"/></mxCell><mxCell id="76" style="edgeStyle=orthogonalEdgeStyle;rounded=0;orthogonalLoop=1;jettySize=auto;html=1;strokeColor=#FFFFFF;fontColor=#FFFFFF;endArrow=classic;endFill=1;startArrow=none;" edge="1" parent="1" source="25" target="74"><mxGeometry relative="1" as="geometry"/></mxCell><mxCell id="3" value="&lt;font color=&quot;#ffffff&quot;&gt;Game&lt;/font&gt;" style="swimlane;whiteSpace=wrap;html=1;strokeColor=#FFFFFF;fillColor=#660000;" vertex="1" parent="1"><mxGeometry x="680" y="360" width="120" height="120" as="geometry"><mxRectangle x="680" y="360" width="70" height="30" as="alternateBounds"/></mxGeometry></mxCell><mxCell id="7" value="window" style="text;html=1;align=center;verticalAlign=middle;resizable=0;points=[];autosize=1;strokeColor=none;fillColor=none;fontColor=#FFFFFF;" vertex="1" parent="3"><mxGeometry x="30" y="30" width="60" height="30" as="geometry"/></mxCell><mxCell id="8" value="jPanel" style="text;html=1;align=center;verticalAlign=middle;resizable=0;points=[];autosize=1;strokeColor=none;fillColor=none;fontColor=#FFFFFF;" vertex="1" parent="3"><mxGeometry x="30" y="60" width="60" height="30" as="geometry"/></mxCell><mxCell id="5" value="&lt;font color=&quot;#ffffff&quot;&gt;Starts&lt;/font&gt;" style="text;html=1;align=center;verticalAlign=middle;resizable=0;points=[];autosize=1;strokeColor=none;fillColor=none;" vertex="1" parent="1"><mxGeometry x="715" y="300" width="50" height="30" as="geometry"/></mxCell><mxCell id="6" value="" style="edgeStyle=orthogonalEdgeStyle;rounded=0;orthogonalLoop=1;jettySize=auto;html=1;strokeColor=#FFFFFF;endArrow=none;" edge="1" parent="1" source="2" target="5"><mxGeometry relative="1" as="geometry"><mxPoint x="740" y="280.0000000000002" as="sourcePoint"/><mxPoint x="740" y="359.9999999999998" as="targetPoint"/></mxGeometry></mxCell><mxCell id="56" style="edgeStyle=orthogonalEdgeStyle;rounded=0;orthogonalLoop=1;jettySize=auto;html=1;entryX=0.5;entryY=0;entryDx=0;entryDy=0;strokeColor=#FFFFFF;fontColor=#FFFFFF;startArrow=none;" edge="1" parent="1" source="57" target="52"><mxGeometry relative="1" as="geometry"/></mxCell><mxCell id="9" value="Key/Mouse/Motion Handler" style="swimlane;whiteSpace=wrap;html=1;strokeColor=#FFFFFF;fontColor=#FFFFFF;fillColor=#660000;" vertex="1" parent="1"><mxGeometry x="440" y="480" width="160" height="80" as="geometry"/></mxCell><mxCell id="11" value="Gets input" style="text;html=1;align=center;verticalAlign=middle;resizable=0;points=[];autosize=1;strokeColor=none;fillColor=none;fontColor=#FFFFFF;" vertex="1" parent="1"><mxGeometry x="480" y="405" width="80" height="30" as="geometry"/></mxCell><mxCell id="12" value="" style="edgeStyle=orthogonalEdgeStyle;rounded=0;orthogonalLoop=1;jettySize=auto;html=1;strokeColor=#FFFFFF;fontColor=#FFFFFF;endArrow=none;" edge="1" parent="1" source="3" target="11"><mxGeometry relative="1" as="geometry"><mxPoint x="680" y="420.0000000000002" as="sourcePoint"/><mxPoint x="560" y="500.0000000000002" as="targetPoint"/></mxGeometry></mxCell><mxCell id="21" style="edgeStyle=orthogonalEdgeStyle;rounded=0;orthogonalLoop=1;jettySize=auto;html=1;strokeColor=#FFFFFF;fontColor=#FFFFFF;startArrow=none;" edge="1" parent="1" source="22" target="20"><mxGeometry relative="1" as="geometry"/></mxCell><mxCell id="30" style="edgeStyle=orthogonalEdgeStyle;rounded=0;orthogonalLoop=1;jettySize=auto;html=1;entryX=0.5;entryY=0;entryDx=0;entryDy=0;strokeColor=#FFFFFF;fontColor=#FFFFFF;startArrow=none;" edge="1" parent="1" source="31" target="29"><mxGeometry relative="1" as="geometry"/></mxCell><mxCell id="44" style="edgeStyle=orthogonalEdgeStyle;rounded=0;orthogonalLoop=1;jettySize=auto;html=1;entryX=0.5;entryY=0;entryDx=0;entryDy=0;strokeColor=#FFFFFF;fontColor=#FFFFFF;exitX=0.571;exitY=1.172;exitDx=0;exitDy=0;startArrow=none;exitPerimeter=0;" edge="1" parent="1" source="45" target="43"><mxGeometry relative="1" as="geometry"/></mxCell><mxCell id="81" style="edgeStyle=orthogonalEdgeStyle;rounded=0;orthogonalLoop=1;jettySize=auto;html=1;exitX=0;exitY=0.5;exitDx=0;exitDy=0;entryX=1;entryY=0.5;entryDx=0;entryDy=0;strokeColor=#FFFFFF;fontColor=#FFFFFF;endArrow=classic;endFill=1;startArrow=none;" edge="1" parent="1" source="82" target="74"><mxGeometry relative="1" as="geometry"/></mxCell><mxCell id="13" value="[...]State" style="swimlane;whiteSpace=wrap;html=1;labelBackgroundColor=none;strokeColor=#FFFFFF;fontColor=#FFFFFF;fillColor=#666600;" vertex="1" parent="1"><mxGeometry x="840" y="600" width="120" height="80" as="geometry"/></mxCell><mxCell id="15" value="Stores multiple" style="text;html=1;align=center;verticalAlign=middle;resizable=0;points=[];autosize=1;strokeColor=none;fillColor=none;fontColor=#FFFFFF;" vertex="1" parent="1"><mxGeometry x="850" y="460" width="100" height="30" as="geometry"/></mxCell><mxCell id="19" value="" style="edgeStyle=orthogonalEdgeStyle;rounded=0;orthogonalLoop=1;jettySize=auto;html=1;entryX=0.5;entryY=0;entryDx=0;entryDy=0;strokeColor=#FFFFFF;fontColor=#FFFFFF;endArrow=none;" edge="1" parent="1" source="3" target="15"><mxGeometry relative="1" as="geometry"><mxPoint x="800" y="420.0000000000002" as="sourcePoint"/><mxPoint x="940" y="479.9999999999998" as="targetPoint"/></mxGeometry></mxCell><mxCell id="20" value="State (abstract)" style="swimlane;whiteSpace=wrap;html=1;labelBackgroundColor=none;strokeColor=#FFFFFF;fontColor=#FFFFFF;fillColor=#666600;" vertex="1" parent="1"><mxGeometry x="800" y="800" width="120" height="80" as="geometry"/></mxCell><mxCell id="22" value="Extends" style="text;html=1;align=center;verticalAlign=middle;resizable=0;points=[];autosize=1;strokeColor=none;fillColor=none;fontColor=#FFFFFF;" vertex="1" parent="1"><mxGeometry x="827" y="730" width="70" height="30" as="geometry"/></mxCell><mxCell id="23" value="" style="edgeStyle=orthogonalEdgeStyle;rounded=0;orthogonalLoop=1;jettySize=auto;html=1;strokeColor=#FFFFFF;fontColor=#FFFFFF;endArrow=none;" edge="1" parent="1" source="13" target="22"><mxGeometry relative="1" as="geometry"><mxPoint x="900" y="600" as="sourcePoint"/><mxPoint x="900" y="680" as="targetPoint"/></mxGeometry></mxCell><mxCell id="63" style="edgeStyle=orthogonalEdgeStyle;rounded=0;orthogonalLoop=1;jettySize=auto;html=1;strokeColor=#FFFFFF;fontColor=#FFFFFF;startArrow=none;" edge="1" parent="1" source="60" target="61"><mxGeometry relative="1" as="geometry"/></mxCell><mxCell id="86" style="edgeStyle=orthogonalEdgeStyle;rounded=0;orthogonalLoop=1;jettySize=auto;html=1;strokeColor=#FFFFFF;fontColor=#FFFFFF;endArrow=classic;endFill=1;startArrow=none;" edge="1" parent="1" source="87" target="85"><mxGeometry relative="1" as="geometry"/></mxCell><mxCell id="29" value="Board" style="swimlane;whiteSpace=wrap;html=1;labelBackgroundColor=none;strokeColor=#FFFFFF;fontColor=#FFFFFF;fillColor=#006666;" vertex="1" parent="1"><mxGeometry x="1040" y="680" width="120" height="80" as="geometry"/></mxCell><mxCell id="31" value="GameState:&lt;br&gt;Stores" style="text;html=1;align=center;verticalAlign=middle;resizable=0;points=[];autosize=1;strokeColor=none;fillColor=none;fontColor=#FFFFFF;" vertex="1" parent="1"><mxGeometry x="1055" y="600" width="90" height="40" as="geometry"/></mxCell><mxCell id="32" value="" style="edgeStyle=orthogonalEdgeStyle;rounded=0;orthogonalLoop=1;jettySize=auto;html=1;entryX=0.5;entryY=0;entryDx=0;entryDy=0;strokeColor=#FFFFFF;fontColor=#FFFFFF;endArrow=none;" edge="1" parent="1" source="13" target="31"><mxGeometry relative="1" as="geometry"><mxPoint x="960" y="560.0000000000002" as="sourcePoint"/><mxPoint x="1100" y="595" as="targetPoint"/></mxGeometry></mxCell><mxCell id="71" style="edgeStyle=orthogonalEdgeStyle;rounded=0;orthogonalLoop=1;jettySize=auto;html=1;entryX=0.5;entryY=0;entryDx=0;entryDy=0;strokeColor=#FFFFFF;fontColor=#FFFFFF;endArrow=classic;endFill=1;startArrow=none;" edge="1" parent="1" source="72" target="47"><mxGeometry relative="1" as="geometry"/></mxCell><mxCell id="43" value="Menu Window" style="swimlane;whiteSpace=wrap;html=1;labelBackgroundColor=none;strokeColor=#FFFFFF;fontColor=#FFFFFF;fillColor=#000066;" vertex="1" parent="1"><mxGeometry x="960" y="840" width="120" height="80" as="geometry"><mxRectangle x="600" y="600" width="120" height="30" as="alternateBounds"/></mxGeometry></mxCell><mxCell id="90" style="edgeStyle=orthogonalEdgeStyle;rounded=0;orthogonalLoop=1;jettySize=auto;html=1;strokeColor=#FFFFFF;fontColor=#FFFFFF;endArrow=classic;endFill=1;" edge="1" parent="1" source="45" target="89"><mxGeometry relative="1" as="geometry"><Array as="points"><mxPoint x="940" y="785"/></Array></mxGeometry></mxCell><mxCell id="45" value="Can draw" style="text;html=1;align=center;verticalAlign=middle;resizable=0;points=[];autosize=1;strokeColor=none;fillColor=none;fontColor=#FFFFFF;" vertex="1" parent="1"><mxGeometry x="980" y="770" width="70" height="30" as="geometry"/></mxCell><mxCell id="46" value="" style="edgeStyle=orthogonalEdgeStyle;rounded=0;orthogonalLoop=1;jettySize=auto;html=1;entryX=0.595;entryY=0.061;entryDx=0;entryDy=0;strokeColor=#FFFFFF;fontColor=#FFFFFF;exitX=1;exitY=0.75;exitDx=0;exitDy=0;endArrow=none;entryPerimeter=0;" edge="1" parent="1" source="13" target="45"><mxGeometry relative="1" as="geometry"><mxPoint x="840" y="580" as="sourcePoint"/><mxPoint x="715" y="640" as="targetPoint"/></mxGeometry></mxCell><mxCell id="49" style="edgeStyle=orthogonalEdgeStyle;rounded=0;orthogonalLoop=1;jettySize=auto;html=1;strokeColor=#FFFFFF;fontColor=#FFFFFF;startArrow=none;" edge="1" parent="1" source="50" target="48"><mxGeometry relative="1" as="geometry"/></mxCell><mxCell id="47" value="Texture Map" style="swimlane;whiteSpace=wrap;html=1;labelBackgroundColor=none;strokeColor=#FFFFFF;fontColor=#FFFFFF;fillColor=#660066;" vertex="1" parent="1"><mxGeometry x="1080" y="1200" width="80" height="80" as="geometry"/></mxCell><mxCell id="48" value="Texture files" style="rounded=1;whiteSpace=wrap;html=1;labelBackgroundColor=none;strokeColor=#FFFFFF;fontColor=#FFFFFF;fillColor=#660066;" vertex="1" parent="1"><mxGeometry x="1160" y="1320" width="120" height="40" as="geometry"/></mxCell><mxCell id="50" value="Loads" style="text;html=1;align=center;verticalAlign=middle;resizable=0;points=[];autosize=1;strokeColor=none;fillColor=none;fontColor=#FFFFFF;" vertex="1" parent="1"><mxGeometry x="1190" y="1225" width="60" height="30" as="geometry"/></mxCell><mxCell id="51" value="" style="edgeStyle=orthogonalEdgeStyle;rounded=0;orthogonalLoop=1;jettySize=auto;html=1;strokeColor=#FFFFFF;fontColor=#FFFFFF;endArrow=none;" edge="1" parent="1" source="47" target="50"><mxGeometry relative="1" as="geometry"><mxPoint x="800" y="880.0000000000005" as="sourcePoint"/><mxPoint x="940" y="960" as="targetPoint"/></mxGeometry></mxCell><mxCell id="52" value="User" style="ellipse;whiteSpace=wrap;html=1;labelBackgroundColor=none;strokeColor=#FFFFFF;fontColor=#FFFFFF;fillColor=none;" vertex="1" parent="1"><mxGeometry x="320" y="600" width="80" height="80" as="geometry"/></mxCell><mxCell id="57" value="Input aquired from" style="text;html=1;align=center;verticalAlign=middle;resizable=0;points=[];autosize=1;strokeColor=none;fillColor=none;fontColor=#FFFFFF;" vertex="1" parent="1"><mxGeometry x="300" y="540" width="120" height="30" as="geometry"/></mxCell><mxCell id="58" value="" style="edgeStyle=orthogonalEdgeStyle;rounded=0;orthogonalLoop=1;jettySize=auto;html=1;entryX=0.5;entryY=0;entryDx=0;entryDy=0;strokeColor=#FFFFFF;fontColor=#FFFFFF;endArrow=none;" edge="1" parent="1" source="9" target="57"><mxGeometry relative="1" as="geometry"><mxPoint x="440" y="520.0000000000002" as="sourcePoint"/><mxPoint x="340" y="600" as="targetPoint"/></mxGeometry></mxCell><mxCell id="67" style="edgeStyle=orthogonalEdgeStyle;rounded=0;orthogonalLoop=1;jettySize=auto;html=1;strokeColor=#FFFFFF;fontColor=#FFFFFF;startArrow=none;" edge="1" parent="1" source="68" target="66"><mxGeometry relative="1" as="geometry"/></mxCell><mxCell id="111" style="edgeStyle=orthogonalEdgeStyle;rounded=0;orthogonalLoop=1;jettySize=auto;html=1;entryX=0.5;entryY=0;entryDx=0;entryDy=0;strokeColor=#FFFFFF;fontColor=#FFFFFF;endArrow=classic;endFill=1;exitX=0.5;exitY=1;exitDx=0;exitDy=0;startArrow=none;" edge="1" parent="1" source="113" target="47"><mxGeometry relative="1" as="geometry"/></mxCell><mxCell id="61" value="Number Square" style="swimlane;whiteSpace=wrap;html=1;labelBackgroundColor=none;strokeColor=#FFFFFF;fontColor=#FFFFFF;fillColor=#006600;" vertex="1" parent="1"><mxGeometry x="1200" y="840" width="120" height="80" as="geometry"/></mxCell><mxCell id="70" style="edgeStyle=orthogonalEdgeStyle;rounded=0;orthogonalLoop=1;jettySize=auto;html=1;strokeColor=#FFFFFF;fontColor=#FFFFFF;endArrow=none;endFill=0;entryX=1.012;entryY=0.533;entryDx=0;entryDy=0;entryPerimeter=0;" edge="1" parent="1" source="62" target="68"><mxGeometry relative="1" as="geometry"/></mxCell><mxCell id="115" style="edgeStyle=orthogonalEdgeStyle;rounded=0;orthogonalLoop=1;jettySize=auto;html=1;entryX=1;entryY=0.506;entryDx=0;entryDy=0;entryPerimeter=0;strokeColor=#FFFFFF;fontColor=#FFFFFF;endArrow=none;endFill=0;exitX=0.5;exitY=1;exitDx=0;exitDy=0;" edge="1" parent="1" source="62" target="113"><mxGeometry relative="1" as="geometry"/></mxCell><mxCell id="62" value="Bomb Square" style="swimlane;whiteSpace=wrap;html=1;labelBackgroundColor=none;strokeColor=#FFFFFF;fontColor=#FFFFFF;fillColor=#006600;" vertex="1" parent="1"><mxGeometry x="1360" y="840" width="120" height="80" as="geometry"/></mxCell><mxCell id="65" style="edgeStyle=orthogonalEdgeStyle;rounded=0;orthogonalLoop=1;jettySize=auto;html=1;strokeColor=#FFFFFF;fontColor=#FFFFFF;" edge="1" parent="1" source="60" target="62"><mxGeometry relative="1" as="geometry"/></mxCell><mxCell id="60" value="Consists of" style="text;html=1;align=center;verticalAlign=middle;resizable=0;points=[];autosize=1;strokeColor=none;fillColor=none;fontColor=#FFFFFF;" vertex="1" parent="1"><mxGeometry x="1220" y="705" width="80" height="30" as="geometry"/></mxCell><mxCell id="64" value="" style="edgeStyle=orthogonalEdgeStyle;rounded=0;orthogonalLoop=1;jettySize=auto;html=1;strokeColor=#FFFFFF;fontColor=#FFFFFF;endArrow=none;" edge="1" parent="1" source="29" target="60"><mxGeometry relative="1" as="geometry"><mxPoint x="1160" y="720.0000000000005" as="sourcePoint"/><mxPoint x="1260" y="840" as="targetPoint"/></mxGeometry></mxCell><mxCell id="66" value="Square (abstract)" style="swimlane;whiteSpace=wrap;html=1;labelBackgroundColor=none;strokeColor=#FFFFFF;fontColor=#FFFFFF;fillColor=#006600;" vertex="1" parent="1"><mxGeometry x="1280" y="1040" width="120" height="80" as="geometry"/></mxCell><mxCell id="68" value="Extends" style="text;html=1;align=center;verticalAlign=middle;resizable=0;points=[];autosize=1;strokeColor=none;fillColor=none;fontColor=#FFFFFF;" vertex="1" parent="1"><mxGeometry x="1305" y="950" width="70" height="30" as="geometry"/></mxCell><mxCell id="69" value="" style="edgeStyle=orthogonalEdgeStyle;rounded=0;orthogonalLoop=1;jettySize=auto;html=1;strokeColor=#FFFFFF;fontColor=#FFFFFF;endArrow=none;entryX=-0.012;entryY=0.506;entryDx=0;entryDy=0;entryPerimeter=0;" edge="1" parent="1" source="61" target="68"><mxGeometry relative="1" as="geometry"><mxPoint x="1260" y="920" as="sourcePoint"/><mxPoint x="1340" y="1040" as="targetPoint"/></mxGeometry></mxCell><mxCell id="72" value="Gets menu textures" style="text;html=1;align=center;verticalAlign=middle;resizable=0;points=[];autosize=1;strokeColor=none;fillColor=none;fontColor=#FFFFFF;" vertex="1" parent="1"><mxGeometry x="955" y="1080" width="130" height="30" as="geometry"/></mxCell><mxCell id="73" value="" style="edgeStyle=orthogonalEdgeStyle;rounded=0;orthogonalLoop=1;jettySize=auto;html=1;entryX=0.5;entryY=0;entryDx=0;entryDy=0;strokeColor=#FFFFFF;fontColor=#FFFFFF;endArrow=none;endFill=0;" edge="1" parent="1" source="43" target="72"><mxGeometry relative="1" as="geometry"><mxPoint x="660" y="680" as="sourcePoint"/><mxPoint x="760" y="840" as="targetPoint"/></mxGeometry></mxCell><mxCell id="78" style="edgeStyle=orthogonalEdgeStyle;rounded=0;orthogonalLoop=1;jettySize=auto;html=1;entryX=0;entryY=0.75;entryDx=0;entryDy=0;strokeColor=#FFFFFF;fontColor=#FFFFFF;endArrow=classic;endFill=1;startArrow=none;" edge="1" parent="1" source="79" target="13"><mxGeometry relative="1" as="geometry"/></mxCell><mxCell id="74" value="State Handler" style="swimlane;whiteSpace=wrap;html=1;labelBackgroundColor=none;strokeColor=#FFFFFF;fontColor=#FFFFFF;fillColor=#660000;" vertex="1" parent="1"><mxGeometry x="640" y="560" width="120" height="80" as="geometry"/></mxCell><mxCell id="75" value="active state" style="text;html=1;align=center;verticalAlign=middle;resizable=0;points=[];autosize=1;strokeColor=none;fillColor=none;fontColor=#FFFFFF;" vertex="1" parent="74"><mxGeometry x="20" y="30" width="80" height="30" as="geometry"/></mxCell><mxCell id="25" value="Sends input / draws" style="text;html=1;align=center;verticalAlign=middle;resizable=0;points=[];autosize=1;strokeColor=none;fillColor=none;fontColor=#FFFFFF;" vertex="1" parent="1"><mxGeometry x="635" y="505" width="130" height="30" as="geometry"/></mxCell><mxCell id="77" value="" style="edgeStyle=orthogonalEdgeStyle;rounded=0;orthogonalLoop=1;jettySize=auto;html=1;strokeColor=#FFFFFF;fontColor=#FFFFFF;endArrow=none;endFill=1;" edge="1" parent="1" source="3" target="25"><mxGeometry relative="1" as="geometry"><mxPoint x="740" y="479.9999999999998" as="sourcePoint"/><mxPoint x="740" y="559.9999999999998" as="targetPoint"/></mxGeometry></mxCell><mxCell id="79" value="Active:&lt;br&gt;Sends input / draws" style="text;html=1;align=center;verticalAlign=middle;resizable=0;points=[];autosize=1;strokeColor=none;fillColor=none;fontColor=#FFFFFF;" vertex="1" parent="1"><mxGeometry x="635" y="705" width="130" height="40" as="geometry"/></mxCell><mxCell id="80" value="" style="edgeStyle=orthogonalEdgeStyle;rounded=0;orthogonalLoop=1;jettySize=auto;html=1;entryX=0;entryY=0.5;entryDx=0;entryDy=0;strokeColor=#FFFFFF;fontColor=#FFFFFF;endArrow=none;endFill=1;exitX=0;exitY=0.5;exitDx=0;exitDy=0;" edge="1" parent="1" source="74" target="79"><mxGeometry relative="1" as="geometry"><mxPoint x="760" y="600.0000000000005" as="sourcePoint"/><mxPoint x="840" y="640" as="targetPoint"/></mxGeometry></mxCell><mxCell id="82" value="Input return:&lt;br&gt;New active&lt;br&gt;(if any)" style="text;html=1;align=center;verticalAlign=middle;resizable=0;points=[];autosize=1;strokeColor=none;fillColor=none;fontColor=#FFFFFF;" vertex="1" parent="1"><mxGeometry x="812" y="500" width="90" height="60" as="geometry"/></mxCell><mxCell id="83" value="" style="edgeStyle=orthogonalEdgeStyle;rounded=0;orthogonalLoop=1;jettySize=auto;html=1;exitX=0.139;exitY=0.023;exitDx=0;exitDy=0;entryX=0.5;entryY=1;entryDx=0;entryDy=0;strokeColor=#FFFFFF;fontColor=#FFFFFF;endArrow=none;endFill=1;exitPerimeter=0;" edge="1" parent="1" source="13" target="82"><mxGeometry relative="1" as="geometry"><mxPoint x="840" y="640" as="sourcePoint"/><mxPoint x="700" y="640" as="targetPoint"/></mxGeometry></mxCell><mxCell id="85" value="Board files" style="rounded=1;whiteSpace=wrap;html=1;labelBackgroundColor=none;strokeColor=#FFFFFF;fontColor=#FFFFFF;fillColor=#006666;" vertex="1" parent="1"><mxGeometry x="1080" y="960" width="120" height="40" as="geometry"/></mxCell><mxCell id="87" value="Loads / saves" style="text;html=1;align=center;verticalAlign=middle;resizable=0;points=[];autosize=1;strokeColor=none;fillColor=none;fontColor=#FFFFFF;" vertex="1" parent="1"><mxGeometry x="1090" y="860" width="100" height="30" as="geometry"/></mxCell><mxCell id="88" value="" style="edgeStyle=orthogonalEdgeStyle;rounded=0;orthogonalLoop=1;jettySize=auto;html=1;strokeColor=#FFFFFF;fontColor=#FFFFFF;endArrow=none;endFill=1;" edge="1" parent="1" source="29" target="87"><mxGeometry relative="1" as="geometry"><mxPoint x="1100" y="760" as="sourcePoint"/><mxPoint x="1140" y="960" as="targetPoint"/></mxGeometry></mxCell><mxCell id="89" value="Slider" style="swimlane;whiteSpace=wrap;html=1;labelBackgroundColor=none;strokeColor=#FFFFFF;fontColor=#FFFFFF;fillColor=#000066;" vertex="1" parent="1"><mxGeometry x="880" y="960" width="120" height="80" as="geometry"/></mxCell><mxCell id="97" style="edgeStyle=orthogonalEdgeStyle;rounded=0;orthogonalLoop=1;jettySize=auto;html=1;entryX=0.5;entryY=0;entryDx=0;entryDy=0;strokeColor=#FFFFFF;fontColor=#FFFFFF;endArrow=classic;endFill=1;startArrow=none;" edge="1" parent="1" source="98" target="96"><mxGeometry relative="1" as="geometry"/></mxCell><mxCell id="105" style="edgeStyle=orthogonalEdgeStyle;rounded=0;orthogonalLoop=1;jettySize=auto;html=1;entryX=0.5;entryY=0;entryDx=0;entryDy=0;strokeColor=#FFFFFF;fontColor=#FFFFFF;endArrow=classic;endFill=1;startArrow=none;" edge="1" parent="1" source="106" target="104"><mxGeometry relative="1" as="geometry"/></mxCell><mxCell id="92" value="Settings (static)" style="swimlane;whiteSpace=wrap;html=1;labelBackgroundColor=none;strokeColor=#FFFFFF;fontColor=#FFFFFF;fillColor=#333333;" vertex="1" parent="1"><mxGeometry x="440" y="920" width="120" height="80" as="geometry"/></mxCell><mxCell id="94" value="Can get/set" style="text;html=1;align=center;verticalAlign=middle;resizable=0;points=[];autosize=1;strokeColor=none;fillColor=none;fontColor=#FFFFFF;" vertex="1" parent="1"><mxGeometry x="460" y="865" width="80" height="30" as="geometry"/></mxCell><mxCell id="95" value="" style="edgeStyle=orthogonalEdgeStyle;rounded=0;orthogonalLoop=1;jettySize=auto;html=1;strokeColor=#FFFFFF;fontColor=#FFFFFF;endArrow=none;endFill=1;" edge="1" parent="1" source="91" target="94"><mxGeometry relative="1" as="geometry"><mxPoint x="480" y="840" as="sourcePoint"/><mxPoint x="480" y="920" as="targetPoint"/></mxGeometry></mxCell><mxCell id="101" style="edgeStyle=orthogonalEdgeStyle;rounded=0;orthogonalLoop=1;jettySize=auto;html=1;entryX=0;entryY=0.5;entryDx=0;entryDy=0;strokeColor=#FFFFFF;fontColor=#FFFFFF;endArrow=classic;endFill=1;startArrow=none;" edge="1" parent="1" source="102" target="100"><mxGeometry relative="1" as="geometry"/></mxCell><mxCell id="96" value="Json Map" style="swimlane;whiteSpace=wrap;html=1;labelBackgroundColor=none;strokeColor=#FFFFFF;fontColor=#FFFFFF;fillColor=#333333;" vertex="1" parent="1"><mxGeometry x="560" y="1040" width="120" height="80" as="geometry"/></mxCell><mxCell id="98" value="Contains" style="text;html=1;align=center;verticalAlign=middle;resizable=0;points=[];autosize=1;strokeColor=none;fillColor=none;fontColor=#FFFFFF;" vertex="1" parent="1"><mxGeometry x="585" y="980" width="70" height="30" as="geometry"/></mxCell><mxCell id="99" value="" style="edgeStyle=orthogonalEdgeStyle;rounded=0;orthogonalLoop=1;jettySize=auto;html=1;entryX=0.5;entryY=0;entryDx=0;entryDy=0;strokeColor=#FFFFFF;fontColor=#FFFFFF;endArrow=none;endFill=1;" edge="1" parent="1" source="92" target="98"><mxGeometry relative="1" as="geometry"><mxPoint x="520" y="960.0000000000005" as="sourcePoint"/><mxPoint x="620" y="1040" as="targetPoint"/></mxGeometry></mxCell><mxCell id="100" value="HashMap (built-in)" style="swimlane;whiteSpace=wrap;html=1;labelBackgroundColor=none;strokeColor=#FFFFFF;fontColor=#FFFFFF;fillColor=none;" vertex="1" parent="1"><mxGeometry x="760" y="1120" width="120" height="72" as="geometry"/></mxCell><mxCell id="102" value="Extends" style="text;html=1;align=center;verticalAlign=middle;resizable=0;points=[];autosize=1;strokeColor=none;fillColor=none;fontColor=#FFFFFF;" vertex="1" parent="1"><mxGeometry x="655" y="1141" width="70" height="30" as="geometry"/></mxCell><mxCell id="103" value="" style="edgeStyle=orthogonalEdgeStyle;rounded=0;orthogonalLoop=1;jettySize=auto;html=1;entryX=0;entryY=0.5;entryDx=0;entryDy=0;strokeColor=#FFFFFF;fontColor=#FFFFFF;endArrow=none;endFill=1;" edge="1" parent="1" source="96" target="102"><mxGeometry relative="1" as="geometry"><mxPoint x="680" y="1080.0000000000005" as="sourcePoint"/><mxPoint x="760" y="1155.9999999999995" as="targetPoint"/></mxGeometry></mxCell><mxCell id="108" style="edgeStyle=orthogonalEdgeStyle;rounded=0;orthogonalLoop=1;jettySize=auto;html=1;exitX=1.083;exitY=0.45;exitDx=0;exitDy=0;entryX=0;entryY=0.5;entryDx=0;entryDy=0;strokeColor=#FFFFFF;fontColor=#FFFFFF;endArrow=classic;endFill=1;startArrow=none;exitPerimeter=0;" edge="1" parent="1" source="109" target="96"><mxGeometry relative="1" as="geometry"/></mxCell><mxCell id="104" value="Settings file" style="rounded=1;whiteSpace=wrap;html=1;labelBackgroundColor=none;strokeColor=#FFFFFF;fontColor=#FFFFFF;fillColor=#333333;" vertex="1" parent="1"><mxGeometry x="320" y="1040" width="120" height="40" as="geometry"/></mxCell><mxCell id="106" value="Loads..." style="text;html=1;align=center;verticalAlign=middle;resizable=0;points=[];autosize=1;strokeColor=none;fillColor=none;fontColor=#FFFFFF;" vertex="1" parent="1"><mxGeometry x="345" y="980" width="70" height="30" as="geometry"/></mxCell><mxCell id="107" value="" style="edgeStyle=orthogonalEdgeStyle;rounded=0;orthogonalLoop=1;jettySize=auto;html=1;entryX=0.5;entryY=0;entryDx=0;entryDy=0;strokeColor=#FFFFFF;fontColor=#FFFFFF;endArrow=none;endFill=1;" edge="1" parent="1" source="92" target="106"><mxGeometry relative="1" as="geometry"><mxPoint x="480" y="1000" as="sourcePoint"/><mxPoint x="380" y="1040" as="targetPoint"/></mxGeometry></mxCell><mxCell id="109" value="...into" style="text;html=1;align=center;verticalAlign=middle;resizable=0;points=[];autosize=1;strokeColor=none;fillColor=none;fontColor=#FFFFFF;" vertex="1" parent="1"><mxGeometry x="440" y="1090" width="50" height="30" as="geometry"/></mxCell><mxCell id="110" value="" style="edgeStyle=orthogonalEdgeStyle;rounded=0;orthogonalLoop=1;jettySize=auto;html=1;exitX=0.5;exitY=1;exitDx=0;exitDy=0;entryX=0;entryY=0.5;entryDx=0;entryDy=0;strokeColor=#FFFFFF;fontColor=#FFFFFF;endArrow=none;endFill=1;" edge="1" parent="1" source="104" target="109"><mxGeometry relative="1" as="geometry"><mxPoint x="380" y="1080" as="sourcePoint"/><mxPoint x="560" y="1080" as="targetPoint"/></mxGeometry></mxCell><mxCell id="113" value="Gets square textures" style="text;html=1;align=center;verticalAlign=middle;resizable=0;points=[];autosize=1;strokeColor=none;fillColor=none;fontColor=#FFFFFF;" vertex="1" parent="1"><mxGeometry x="1195" y="1130" width="130" height="30" as="geometry"/></mxCell><mxCell id="114" value="" style="edgeStyle=orthogonalEdgeStyle;rounded=0;orthogonalLoop=1;jettySize=auto;html=1;entryX=0.5;entryY=0;entryDx=0;entryDy=0;strokeColor=#FFFFFF;fontColor=#FFFFFF;endArrow=none;endFill=1;exitX=0.5;exitY=1;exitDx=0;exitDy=0;" edge="1" parent="1" source="61" target="113"><mxGeometry relative="1" as="geometry"><mxPoint x="1260" y="920" as="sourcePoint"/><mxPoint x="1120" y="1200" as="targetPoint"/></mxGeometry></mxCell></root></mxGraphModel></diagram></mxfile>